<?xml version="1.0" encoding="UTF-8"?>
<svg id="Layer_2" data-name="Layer 2" xmlns="http://www.w3.org/2000/svg" xmlns:xlink="http://www.w3.org/1999/xlink" viewBox="0 0 79.4 78.2">
  <defs>
    <style>
      .cls-1 {
        opacity: .48;
        stroke: #00fe87;
        stroke-miterlimit: 10;
        stroke-width: .25px;
      }

      .cls-1, .cls-2 {
        fill: none;
      }

      .cls-3 {
        fill: #2f3646;
      }

      .cls-4 {
        fill: #00fe87;
      }

      .cls-5 {
        clip-path: url(#clippath);
      }
    </style>
    <clipPath id="clippath">
      <rect class="cls-2" width="79.4" height="78.2" rx="7.17" ry="7.17"/>
    </clipPath>
  </defs>
  <g id="Layer_1-2" data-name="Layer 1">
    <rect class="cls-3" width="79.4" height="78.2" rx="7.17" ry="7.17"/>
    <g class="cls-5">
      <path class="cls-1" d="m94.42,65.39v1.33c0,3.42-2.26,6.19-5.05,6.19h-11.3c-.62,0-1.13.62-1.13,1.38v20.69c0,3.42-2.26,6.19-5.05,6.19h-2.21c-2.17,0-3.93-2.15-3.93-4.8v-22.07c0-.76-.5-1.38-1.13-1.38h-11.29c-2.79,0-5.06-2.77-5.06-6.2v-1.32c0-3.42,2.26-6.2,5.06-6.2h11.29c.62,0,1.13-.62,1.13-1.38v-6.97c0-3.42,2.26-6.2,5.06-6.2h2.21c2.17,0,3.92,2.15,3.92,4.81v8.35c0,.76.5,1.38,1.13,1.38h11.29c2.79,0,5.06,2.77,5.06,6.2Z"/>
      <path class="cls-1" d="m25.28-2.99v1.33c0,3.42-2.26,6.19-5.05,6.19h-11.3c-.62,0-1.13.62-1.13,1.38v20.69c0,3.42-2.26,6.19-5.05,6.19H.55c-2.17,0-3.93-2.15-3.93-4.8V5.91c0-.76-.5-1.38-1.13-1.38h-11.29c-2.79,0-5.06-2.77-5.06-6.2v-1.32c0-3.42,2.26-6.2,5.06-6.2H-4.51c.62,0,1.13-.62,1.13-1.38v-6.97c0-3.42,2.26-6.2,5.06-6.2h2.21c2.17,0,3.92,2.15,3.92,4.81v8.35c0,.76.5,1.38,1.13,1.38h11.29c2.79,0,5.06,2.77,5.06,6.2Z"/>
    </g>
    <path class="cls-4" d="m50.41,15.07l-10.83,18.05-10.59-18.05h-10.39l15.54,25.37h10.97l15.7-25.37h-10.39Z"/>
    <rect class="cls-4" x="34.17" y="51.22" width="11.04" height="14.4"/>
  </g>
</svg>