<svg width="225" height="33" viewBox="0 0 225 33" fill="none" xmlns="http://www.w3.org/2000/svg">
<g clip-path="url(#clip0_3_2)">
<path d="M20.3111 0.244873L13.3986 11.9057L6.63594 0.244873H0L9.91935 16.6399H16.924L26.947 0.244873H20.3111Z" fill="#00FE87"/>
<path d="M79.4931 24.1378V32.965H86.2212V24.1378H79.4931Z" fill="#00FE87"/>
<path d="M107.339 32.965H98.4332L91.5208 25.4088V15.5671H91.7166C95.5761 15.5671 98.0645 13.8647 98.0645 10.9028C98.0645 7.75442 95.265 6.36678 91.7742 6.36678H86.2327V15.3806H79.4931V0H92.7074C98.8019 0 105.035 3.40495 105.035 10.658C105.035 16.3834 100.426 19.7883 95.1383 20.2314L107.339 32.965Z" fill="#00FE87"/>
<path d="M138.134 0.244873L131.302 11.9057L124.424 0.244873H117.788L127.707 16.6399H134.793L144.77 0.244873H138.134Z" fill="#00FE87"/>
<path d="M166.694 9.46856C166.694 11.5675 168.71 12.3488 171.302 13.4332L175.115 15.0424C176.456 15.6497 177.711 16.4339 178.848 17.3746C179.124 17.6275 179.313 17.9622 179.389 18.3308V18.7505C179.389 18.8088 170.553 18.6922 167.592 18.459C167.055 18.4346 166.522 18.3525 166.002 18.2141C164.044 17.7944 159.954 13.1184 159.954 9.4569C159.954 3.70814 165.23 -0.0116504 170.968 -0.0116504C174.025 -0.0468335 177.028 0.807136 179.62 2.44877V8.8622C177.336 7.17659 174.619 6.19647 171.797 6.04029C169.355 6.05195 166.694 7.0781 166.694 9.46856Z" fill="#00FE87"/>
<path d="M224.055 19.3569L215.288 0.244873H211.982L203.226 19.3569L202.419 21.106H209.677L210.415 19.3569L213.629 11.2993L216.901 19.3569L217.638 21.106H224.862L224.055 19.3569Z" fill="#00FE87"/>
<path d="M16.9931 23.6014H9.94238V32.9067H16.9931V23.6014Z" fill="#00FE87"/>
<path d="M134.816 22.9251H127.765V32.965H134.816V22.9251Z" fill="#00FE87"/>
<path d="M225 26.8315H202.258V32.9067H225V26.8315Z" fill="white"/>
<path d="M60.4608 19.2869L51.6129 0H48.2604L39.4124 19.2869L38.606 21.0477H45.9562L46.6935 19.2869L49.9309 11.1244L53.2373 19.2869L53.9862 21.0477H61.2673L60.4608 19.2869Z" fill="#00FE87"/>
<path d="M61.4171 26.8315H38.4562V32.965H61.4171V26.8315Z" fill="white"/>
<path d="M179.551 23.1117V33H159.412V27.1929H172.143V23.1117H179.551Z" fill="#00FE87"/>
</g>
<defs>
<clipPath id="clip0_3_2">
<rect width="225" height="33" fill="white"/>
</clipPath>
</defs>
</svg>
