<svg width="707" height="717" viewBox="0 0 707 717" fill="none" xmlns="http://www.w3.org/2000/svg">
<path opacity="0.5" d="M68 178H1M68 317H1" stroke="#39D8B0" stroke-width="1.5" stroke-linecap="round" stroke-linejoin="round"/>
<path opacity="0.5" d="M212.5 36.2778H207.2C197.796 15.4743 176.874 1 152.575 1H131.425C107.126 1 86.2044 15.4743 76.7998 36.2778H71.5C32.5639 36.2778 1 67.8666 1 106.833V389.056C1 428.022 32.5639 459.611 71.5 459.611H72.4301C77.4248 487.685 101.938 509 131.425 509H152.575C182.062 509 206.575 487.685 211.57 459.611H212.5C251.436 459.611 283 428.022 283 389.056V106.833C283 67.8666 251.436 36.2778 212.5 36.2778Z" stroke="#8B89B4" stroke-width="1.5" stroke-linecap="round" stroke-linejoin="round"/>
<path opacity="0.5" d="M140 511.807V564.769C140 642.769 203.32 706 281.428 706C359.537 706 422.857 642.769 422.857 564.769L422.857 352.923C422.857 294.423 470.348 246.999 528.93 247C587.511 247.001 635 294.424 635 352.924V370.578" stroke="#8B89B4" stroke-width="1.5" stroke-linecap="round" stroke-linejoin="round"/>
<path opacity="0.5" d="M695.705 602.79L637.641 497.835C636.287 495.388 632.713 495.388 631.359 497.835L573.295 602.79C566.761 614.051 563 627.259 563 641.384C563 682.593 595.012 716 634.5 716C673.988 716 706 682.593 706 641.384C706 627.259 702.239 614.051 695.705 602.79Z" stroke="#02B55C" stroke-width="1.5" stroke-linecap="round" stroke-linejoin="round"/>
</svg>
