<svg width="64" height="64" viewBox="0 0 64 64" fill="none" xmlns="http://www.w3.org/2000/svg">
<path opacity="0.3" d="M28.1209 1.3272C24.3763 1.36334 21.3703 4.46154 21.4069 8.24722L21.5392 21.9564L7.9787 22.0872C4.23408 22.1234 1.22809 25.2216 1.26463 29.0073L1.33078 35.8618C1.36732 39.6475 4.43255 42.6871 8.17717 42.651L21.7376 42.5201L21.87 56.2292C21.9065 60.0149 24.9717 63.0545 28.7164 63.0184L35.4966 62.9529C39.2412 62.9168 42.2472 59.8186 42.2107 56.0329L42.0784 42.3238L55.6388 42.1929C59.3834 42.1568 62.3894 39.0586 62.3529 35.2729L62.2867 28.4183C62.2502 24.6326 59.185 21.593 55.4404 21.6292L41.8799 21.7601L41.7476 8.0509C41.711 4.26522 38.6458 1.22562 34.9012 1.26176L28.1209 1.3272Z" stroke="#2F2E41" stroke-width="1.5" stroke-linecap="round" stroke-linejoin="round"/>
</svg>
